<?xml version="1.0" encoding="UTF-8"?><svg id="Layer_2" xmlns="http://www.w3.org/2000/svg" viewBox="0 0 570 570"><defs><style>.cls-1{fill:#7bed9f;}</style></defs><g id="Layer_2-2"><g id="Layer_1-2"><path class="cls-1" d="M285,0C160.15,0,54.12,80.32,15.58,192.08l115.19-31.97v68.12L.93,262.98c-.56,7.27-.93,14.6-.93,22.02h0c0,7.42.37,14.75.93,22.02l129.84,34.75v68.12l-115.19-31.97c38.54,111.76,144.57,192.08,269.42,192.08h271.38c7.52,0,13.62-6.1,13.62-13.62v-271.38C570,127.6,442.4,0,285,0ZM465.57,344.04l-237.28,65.86v-68.12l193-51.66v-10.22l-193-51.66v-68.12l237.28,65.85v118.07Z"/></g></g></svg>
